<svg width="165" height="149" viewBox="0 0 165 149" fill="none" xmlns="http://www.w3.org/2000/svg">
<g opacity="0.2">
<path d="M93.2887 53.3431C107.729 53.3431 121.278 61.3029 128.641 74.1126L133.898 83.2656L178.982 56.6186L173.676 47.327C156.998 18.1358 126.2 -0.000907898 93.2887 -0.000907898C62.5018 -0.000907898 35.2348 15.4376 18.2676 39.0747L63.9383 66.0604C71.3915 58.2314 81.7892 53.3431 93.2887 53.3431Z" fill="#2A2A2A"/>
<path d="M128.65 116.549C121.298 129.358 107.756 137.318 93.3088 137.318C81.8131 137.318 71.4229 132.434 63.966 124.608L18.3027 151.598C35.2662 175.227 62.5295 190.658 93.3088 190.658C126.22 190.658 157.018 172.525 173.696 143.33L179.002 134.039L133.91 107.396L128.65 116.549Z" fill="#6F6F6F"/>
<path d="M52.2666 95.3264C52.2666 83.9486 56.7265 73.6293 63.9353 66.0582L18.2645 39.0725C6.93426 54.8613 0.150391 74.276 0.150391 95.3264C0.150391 116.385 6.93802 135.803 18.2758 151.596L63.9428 124.606C56.7302 117.039 52.2666 106.708 52.2666 95.3264Z" fill="#A9A9A9"/>
</g>
</svg>
